<svg xmlns="http://www.w3.org/2000/svg" width="1440" height="640" fill="none"><defs><linearGradient id="cone" x1="0" x2="0" y1="0" y2="1"><stop offset="0" stop-color="#e9e4db" stop-opacity=".85"/><stop offset="1" stop-color="#f2efe8" stop-opacity=".25"/></linearGradient><symbol id="drop" viewBox="0 0 24 34"><path d="M12 0s12 14.6 12 22a12 12 0 0 1-24 0C0 14.6 12 0 12 0"/></symbol><filter id="grain" width="110%" height="110%" x="-5%" y="-5%"><feTurbulence baseFrequency=".85" numOctaves="3" result="n" seed="7" type="fractalNoise"/><feColorMatrix in="n" result="g" type="saturate" values="0"/><feComponentTransfer in="g" result="g2"><feFuncA slope=".16" type="linear"/></feComponentTransfer><feComposite in="g2" in2="SourceAlpha" operator="in" result="grainMasked"/><feBlend in="SourceGraphic" in2="grainMasked" mode="multiply"/></filter></defs><g filter="url(#grain)"><path fill="url(#cone)" d="M900-40h500l-170 510h-125Z"/><path fill="#dcd6cb" d="M1010 24c58-46 132-38 172 12 44-54 128-58 176-8 40 42 26 106-32 122h-280c-56-14-72-84-36-126" opacity=".9"/><path fill="#c9c2b6" d="M1198 8c46-34 108-28 140 14 34-44 104-46 142-4 32 36 20 88-28 100h-236c-46-12-58-72-18-110" opacity=".65"/></g><path stroke="#2a2a28" d="M932 92v96m54-128v128m54-80v84m54-148v150m54-110v104m54-126v122m54-84v92m54-140v138m54-94v84m-405-30v78m108-60v66m108-76v74m108-56v60m108-86v72" opacity=".34"/><g filter="url(#grain)"><use width="24" height="34" x="920" y="176" fill="#b0aca6" href="#drop"/><use width="26" height="37" x="974" y="152" fill="#8f8a83" href="#drop"/><use width="22" height="31" x="1030" y="186" fill="#c9c2b6" href="#drop"/><use width="28" height="40" x="1082" y="140" fill="#6f6a63" href="#drop"/><use width="24" height="34" x="1138" y="176" fill="#a5a09a" href="#drop"/><use width="26" height="37" x="1192" y="150" fill="#c1baae" href="#drop"/><use width="22" height="31" x="1246" y="184" fill="#8f8a83" href="#drop"/><use width="30" height="42" x="1300" y="146" fill="#4a463f" href="#drop"/><use width="24" height="34" x="1356" y="180" fill="#b0aca6" href="#drop"/><use width="22" height="31" x="948" y="240" fill="#c9c2b6" href="#drop"/><use width="24" height="34" x="1056" y="246" fill="#a5a09a" href="#drop"/><use width="22" height="31" x="1164" y="242" fill="#8f8a83" href="#drop"/><use width="24" height="34" x="1272" y="248" fill="#c1baae" href="#drop"/><use width="22" height="31" x="1380" y="236" fill="#b0aca6" href="#drop"/><use width="24" height="34" x="1004" y="300" fill="#b0aca6" href="#drop"/><use width="22" height="31" x="1112" y="308" fill="#8f8a83" href="#drop"/><use width="24" height="34" x="1220" y="302" fill="#c9c2b6" href="#drop"/><use width="22" height="31" x="1328" y="312" fill="#a5a09a" href="#drop"/><use width="24" height="34" x="1060" y="368" fill="#c1baae" href="#drop"/><use width="22" height="31" x="1168" y="376" fill="#b0aca6" href="#drop"/><use width="28" height="40" x="1150" y="432" fill="#f04d3b" href="#drop"/></g><path stroke="#2a2a28" d="M1096 556a26 8 0 1 0 52 0m-64 10a38 11 0 1 0 76 0m98-18a20 6 0 1 0 40 0m-50 8a30 9 0 1 0 60 0" opacity=".22"/><g filter="url(#grain)"><rect width="230" height="26" x="1128" y="522" fill="#f04d3b" rx="13"/><circle cx="1128" cy="535" r="42" fill="#f04d3b"/><circle cx="1128" cy="535" r="17" fill="#f1efec"/><rect width="18" height="24" x="1290" y="548" fill="#f04d3b" rx="4"/><rect width="18" height="16" x="1330" y="548" fill="#f04d3b" rx="4"/></g><path stroke="#ffb45b" stroke-linecap="round" stroke-width="3" d="M1180 496v-16m32 16v-22m32 22v-16m32 16v-22m32 22v-16" opacity=".95"/><path stroke="#2a2a28" stroke-linecap="round" stroke-width="1.6" d="M1372 470c8-8 16 8 24 0s16 8 24 0m-526-40c8-8 16 8 24 0m484 90 14-16m-2 36 16-12" opacity=".5"/></svg>