<svg xmlns="http://www.w3.org/2000/svg" width="1200" height="300" fill="none"><defs><filter id="g2" width="110%" height="110%" x="-5%" y="-5%"><feTurbulence baseFrequency=".9" numOctaves="3" result="n" seed="14" type="fractalNoise"/><feColorMatrix in="n" result="s" type="saturate" values="0"/><feComponentTransfer in="s" result="a"><feFuncA slope=".09" type="linear"/></feComponentTransfer><feComposite in="a" in2="SourceAlpha" operator="in" result="m"/><feBlend in="SourceGraphic" in2="m" mode="screen"/></filter></defs><g filter="url(#g2)"><g fill="#fff" opacity=".07"><rect width="38" height="38" x="1010" y="18" rx="9"/><rect width="38" height="38" x="1058" y="18" rx="9"/><rect width="38" height="38" x="1106" y="18" rx="9"/><rect width="38" height="38" x="1154" y="18" rx="9"/><rect width="38" height="38" x="1010" y="242" rx="9"/><rect width="38" height="38" x="1058" y="242" rx="9"/><rect width="38" height="38" x="1154" y="242" rx="9"/></g><rect width="38" height="38" x="1106" y="242" fill="#f04d3b" opacity=".34" rx="9"/><rect width="980" height="14" y="40" fill="#fff" opacity=".07" rx="7"/><rect width="900" height="16" y="256" fill="#f04d3b" opacity=".3" rx="8"/><g fill="#ffb45b" opacity=".4"><rect width="10" height="10" x="120" y="22" rx="3"/><rect width="10" height="10" x="146" y="22" rx="3"/><rect width="10" height="10" x="172" y="22" rx="3"/></g></g><path stroke="#fff" stroke-linecap="round" stroke-width="1.2" d="M980 47h40m-12-8 10 8-10 8M40 276c8-8 16 8 24 0s16 8 24 0" opacity=".2"/></svg>