<svg xmlns="http://www.w3.org/2000/svg" width="1440" height="560" fill="none"><defs><filter id="g" width="110%" height="110%" x="-5%" y="-5%"><feTurbulence baseFrequency=".9" numOctaves="3" result="n" seed="5" type="fractalNoise"/><feColorMatrix in="n" result="s" type="saturate" values="0"/><feComponentTransfer in="s" result="a"><feFuncA slope=".14" type="linear"/></feComponentTransfer><feComposite in="a" in2="SourceAlpha" operator="in" result="m"/><feBlend in="SourceGraphic" in2="m" mode="multiply"/></filter></defs><g filter="url(#g)"><path fill="#e6e6e6" d="M860 120h180c60 0 60 150 120 150H860z"/><path fill="#d4d4d4" d="M860 250h300v40H860z"/><path fill="#e6e6e6" d="M860 420h180c60 0 60-130 120-130H860z"/><circle cx="1196" cy="270" r="46" fill="#b0aca6"/><circle cx="1196" cy="270" r="18" fill="#f1efec"/><rect width="180" height="52" x="1250" y="244" fill="#f04d3b" rx="26"/></g><path stroke="#feab11" stroke-linecap="round" stroke-width="3" d="M1280 320v-12m40 16v-16m40 12v-12m40 16v-16"/><path stroke="#2a2a2a" stroke-linecap="round" stroke-width="1.4" d="M1250 200h150m-8-8 10 8-10 8M840 350c8-8 16 8 24 0" opacity=".45"/></svg>